<svg version="1.1" id="Layer_1" xmlns="http://www.w3.org/2000/svg" xmlns:xlink="http://www.w3.org/1999/xlink" x="0px" y="0px"
	 width="100%" viewBox="0 0 1024 1024" enable-background="new 0 0 1024 1024" xml:space="preserve">
<path fill="#000000" opacity="1.000000" stroke="none" 
	d="
M685.283081,658.291931 
	C684.346436,661.192444 683.304443,663.679443 682.770081,666.271118 
	C681.359802,673.111206 682.747375,679.134033 688.332153,683.859985 
	C689.683228,685.003296 691.573303,685.653931 692.518738,688.328125 
	C671.095215,688.328125 649.985168,688.328125 628.872375,688.328125 
	C628.815369,686.711426 629.879150,686.340088 630.723083,685.957458 
	C645.669617,679.181152 655.487244,667.076538 663.869324,653.649414 
	C682.138000,624.385071 698.278076,593.884033 715.570496,564.051086 
	C725.842712,546.329346 735.980591,528.529114 746.355591,510.868011 
	C748.407166,507.375671 748.657959,504.417389 747.080505,500.618561 
	C739.474854,482.302643 730.697754,464.522736 722.621033,446.424286 
	C712.034912,422.702850 702.134155,398.663361 690.527283,375.413635 
	C685.260254,364.863251 677.745972,355.906525 667.972839,349.128662 
	C657.557678,341.905579 649.790466,342.803436 640.866516,351.855286 
	C632.579651,360.260895 627.473877,370.525116 624.202087,381.644897 
	C615.086975,412.624146 606.148804,443.656525 597.327087,474.720856 
	C584.278198,520.670532 571.370483,566.660461 558.441650,612.644165 
	C551.684814,636.676086 544.945801,660.713562 538.378967,684.797607 
	C537.511108,687.980469 536.081421,689.250488 532.875305,689.146790 
	C528.213623,688.995972 523.543579,689.072632 518.877441,689.102417 
	C516.431702,689.117981 514.818054,688.329956 514.190491,685.676331 
	C509.015533,663.792786 501.679565,642.527405 495.553711,620.913757 
	C487.249451,591.613953 478.292480,562.494934 470.295990,533.113098 
	C459.891296,494.882568 448.620911,456.905426 437.623962,418.849060 
	C433.145569,403.351013 429.547577,387.550323 423.278900,372.609711 
	C418.867706,362.096222 412.288177,353.148682 402.614136,346.918121 
	C393.511597,341.055664 385.848511,344.756287 384.117279,355.351074 
	C383.412903,359.661804 383.337341,363.965881 383.337524,368.298004 
	C383.342316,473.458130 383.342438,578.618286 383.343353,683.778381 
	C383.343353,684.611694 383.503510,685.483765 383.313232,686.271179 
	C382.673676,688.917969 385.099213,692.628113 381.016418,694.071533 
	C376.063934,695.822449 370.289856,693.942627 367.873505,690.243286 
	C344.368774,654.258728 320.836151,618.297302 296.612732,582.783691 
	C276.901886,553.885986 257.920410,524.490051 238.675751,495.275330 
	C218.790344,465.087891 198.979019,434.851624 179.128311,404.641327 
	C178.318756,403.409271 177.695190,401.984497 176.103409,401.379395 
	C174.577240,402.449005 175.105911,404.064911 175.106842,405.449921 
	C175.159119,482.777771 175.131729,560.106018 175.439713,637.432922 
	C175.483963,648.541321 176.179993,659.720825 178.022644,670.753540 
	C179.115555,677.297302 181.957932,682.959351 186.815399,688.089355 
	C172.964493,689.070618 159.569962,689.189148 146.110214,688.538818 
	C146.200058,687.320312 146.092010,686.849731 146.266800,686.691406 
	C157.081329,676.891785 157.045624,663.391357 157.494263,650.651184 
	C160.010635,579.192261 158.083969,507.696411 158.658752,436.217682 
	C158.812851,417.053894 158.746109,397.888306 158.767761,378.723541 
	C158.774948,372.354828 157.872421,366.145020 155.881561,360.057434 
	C152.889374,350.907990 145.841751,346.352844 137.458862,343.114990 
	C134.901764,342.127319 132.004364,341.745972 129.831665,339.670868 
	C131.309067,337.136383 133.531555,337.976624 135.333008,337.965942 
	C148.165085,337.890045 161.001556,338.116852 173.828445,337.851257 
	C178.382935,337.756927 181.113602,339.326843 183.550858,343.143433 
	C203.814804,374.875305 224.140076,406.569489 244.681351,438.122406 
	C271.584290,479.447296 298.697968,520.635010 325.727478,561.877502 
	C337.506195,579.849915 349.290192,597.818970 361.110596,615.763977 
	C361.974182,617.075073 362.469666,618.773865 364.699097,619.651184 
	C364.699097,616.935669 364.699463,614.502014 364.699066,612.068298 
	C364.686279,535.907227 364.779419,459.745880 364.561340,383.585419 
	C364.522797,370.119598 363.159241,356.643951 359.258514,343.629639 
	C357.940369,339.231903 359.393890,337.988647 363.652039,337.997284 
	C396.482941,338.063812 429.314087,338.010040 462.145142,338.010437 
	C463.776062,338.010468 465.506531,337.794342 466.746033,339.111115 
	C467.101776,340.622406 466.135925,341.372833 465.313812,342.181854 
	C458.613861,348.775269 456.760864,356.955109 459.088287,365.640778 
	C465.893585,391.037415 473.124023,416.320679 480.254486,441.629578 
	C490.590881,478.317993 500.946594,515.001038 511.368683,551.665161 
	C518.968567,578.400818 526.680054,605.104614 534.376953,631.812561 
	C534.825928,633.370422 535.590332,634.837463 536.715637,637.587463 
	C539.864380,626.357056 542.648254,616.309998 545.498352,606.281738 
	C562.333130,547.048218 578.434937,487.615540 593.878784,428.004913 
	C598.426697,410.450806 602.804199,392.852600 607.299133,375.284668 
	C608.505066,370.571075 608.978333,365.792999 609.067383,360.944244 
	C609.194702,354.005188 607.765015,347.705933 602.285950,342.867981 
	C601.316528,342.011963 600.278076,341.074738 600.153931,338.098511 
	C646.542114,337.792358 692.857788,337.980957 739.319824,337.920380 
	C739.188538,341.470306 736.847839,341.966461 735.463562,343.158936 
	C725.940979,351.361816 724.044373,358.614441 728.842163,370.203857 
	C738.912903,394.530029 750.848328,418.004425 761.751282,441.951141 
	C765.386414,449.934998 769.168884,457.851715 773.306519,466.703186 
	C775.031372,463.399384 776.303528,460.950623 777.586304,458.507446 
	C792.065491,430.930725 806.591919,403.378632 820.982666,375.755829 
	C823.431702,371.054962 825.870667,366.288330 826.807312,360.940277 
	C828.241943,352.748810 825.654236,347.135590 818.497803,342.951996 
	C816.713867,341.909119 814.275757,341.618317 813.339355,338.384766 
	C838.424194,338.384766 863.240356,338.384766 888.198608,338.384766 
	C887.795349,340.721375 886.090332,340.839813 884.786621,341.302002 
	C868.434448,347.099487 856.348450,358.017090 846.595032,372.119232 
	C833.295776,391.348175 823.052612,412.366943 810.764648,432.184906 
	C801.812256,446.623260 793.559143,461.495148 784.611877,475.936890 
	C781.665771,480.692169 781.349792,484.533325 783.812927,489.690216 
	C804.558838,533.124268 824.739929,576.828552 846.074158,619.981262 
	C852.776367,633.537781 858.127014,647.760132 867.149231,660.171997 
	C874.745911,670.622742 883.834900,679.130493 895.112976,685.354126 
	C895.691650,685.673523 896.264526,686.023560 896.773010,686.440979 
	C896.997986,686.625793 897.055603,687.014404 897.564209,688.141968 
	C869.972290,688.141968 842.761047,688.141968 815.497986,688.141968 
	C815.622131,686.083740 816.964111,685.499329 817.947266,684.670654 
	C825.104309,678.637451 826.821167,672.761536 823.899719,663.813049 
	C821.299438,655.848328 817.018494,648.643982 813.223389,641.256409 
	C801.268433,617.984802 790.762573,594.034729 779.544250,570.419556 
	C772.469177,555.526062 765.435730,540.612671 758.333740,525.732056 
	C757.940918,524.908875 757.975708,523.680298 756.684875,523.370911 
	C749.038025,537.745422 741.612732,552.238892 733.702332,566.462646 
	C716.940125,596.602844 700.410339,626.859070 685.283081,658.291931 
z"/>
</svg>